<svg width="60" height="56" viewBox="0 0 60 56" fill="none" xmlns="http://www.w3.org/2000/svg">
<path fill-rule="evenodd" clip-rule="evenodd" d="M55.5 0H4.5C2.00004 0 0 2.00004 0 4.5V35V39.5C0 42 2.00004 44 4.5 44H23.7L22.2 50H22C19.2 50 16.9999 52.2 16.9999 55C16.9999 55.6 17.3999 56 17.9999 56H41.9999C42.5999 56 42.9998 55.6 42.9998 55C42.9998 52.2001 40.7999 50 37.9998 50H37.7998L36.2998 44H55.5C58 44 60 42 60 39.5V35V4.5C60 1.99992 58 0 55.5 0ZM2.00006 4.49996C2.00006 3.09992 3.1001 2 4.50002 2H55.5C56.9001 2 58 3.10004 58 4.49996V33.9999H2.00006V4.49996ZM19.2 54H40.9C40.5 52.8 39.4 52 38.1 52H37H22.9999H22C20.7 52 19.6 52.8 19.2 54ZM35.7 50H24.3L25.8 44H34.2L35.7 50ZM55.5 41.9998C56.8999 41.9998 58 40.8998 58 39.4998H58.0001V35.9998H2.00006V39.4998C2.00006 40.8997 3.09998 41.9998 4.50002 41.9998H25.0001H35.0001H55.5Z" fill="#282828"/>
<path d="M26 13.4378L36.5 19.5L26 25.5622L26 13.4378Z" stroke="url(#paint0_linear)" stroke-width="1.5"/>
<defs>
<linearGradient id="paint0_linear" x1="33.325" y1="41.7024" x2="52.7654" y2="12.1715" gradientUnits="userSpaceOnUse">
<stop stop-color="#F66B39"/>
<stop offset="1" stop-color="#F42267"/>
</linearGradient>
</defs>
</svg>
