<svg width="60" height="56" fill="none" xmlns="http://www.w3.org/2000/svg"><path fill-rule="evenodd" clip-rule="evenodd" d="M55.5 0h-51C2 0 0 2 0 4.5v35C0 42 2 44 4.5 44h19.2l-1.5 6H22c-2.8 0-5 2.2-5 5 0 .6.4 1 1 1h24c.6 0 1-.4 1-1 0-2.8-2.2-5-5-5h-.2l-1.5-6h19.2c2.5 0 4.5-2 4.5-4.5v-35C60 2 58 0 55.5 0zM2 4.5C2 3.1 3.1 2 4.5 2h51C56.9 2 58 3.1 58 4.5V34H2V4.5zM19.2 54h21.7c-.4-1.2-1.5-2-2.8-2H22c-1.3 0-2.4.8-2.8 2zm16.5-4H24.3l1.5-6h8.4l1.5 6zm19.8-8c1.4 0 2.5-1.1 2.5-2.5V36H2v3.5C2 40.9 3.1 42 4.5 42h51z" fill="#282828"/><path d="M26 13.438L36.5 19.5 26 25.562V13.438z" stroke="url(#paint0_linear)" stroke-width="1.5"/><defs><linearGradient id="paint0_linear" x1="33.325" y1="41.702" x2="52.765" y2="12.171" gradientUnits="userSpaceOnUse"><stop stop-color="#F66B39"/><stop offset="1" stop-color="#F42267"/></linearGradient></defs></svg>