<svg xmlns="http://www.w3.org/2000/svg" width="20" height="20" viewBox="0 0 20 20"><defs><clipPath id="eznca"><path fill="#fff" d="M0 2a2 2 0 0 1 2-2h16a2 2 0 0 1 2 2v16a2 2 0 0 1-2 2H2a2 2 0 0 1-2-2z"/></clipPath></defs><g><g><g><path fill="none" stroke="#00aafe" stroke-miterlimit="50" stroke-width="4" d="M0 2a2 2 0 0 1 2-2h16a2 2 0 0 1 2 2v16a2 2 0 0 1-2 2H2a2 2 0 0 1-2-2z" clip-path="url(&quot;#eznca&quot;)"/></g><g><path fill="none" stroke="#00aafe" stroke-miterlimit="50" stroke-width="2" d="M6.11 9.842v0l2.848 2.848v0l5.52-5.52v0"/></g></g></g></svg>