<svg width="32" height="32" fill="none" xmlns="http://www.w3.org/2000/svg"><circle cx="16" cy="16" r="16" fill="#7294C7"/><path d="M23.845 20.092c0-.066-.066-.066-.066-.133-.266-.531-.864-1.195-1.66-1.926-.4-.332-.599-.598-.732-.73-.199-.266-.199-.465-.132-.731.066-.2.332-.531.797-1.13.265-.331.398-.53.597-.73.997-1.328 1.462-2.191 1.329-2.59l-.067-.066c-.066-.067-.133-.133-.265-.133-.133-.067-.332-.067-.532 0h-2.989l-.066.066c-.066.066-.066.066-.066.133-.266.73-.598 1.328-.93 1.992-.2.333-.399.665-.598.93-.2.266-.332.465-.465.598-.133.133-.266.2-.332.332-.066.067-.2.133-.2.067-.066 0-.132 0-.132-.067l-.2-.199c-.066-.066-.066-.2-.132-.332v-3.321c0-.066-.067-.2-.067-.266l-.199-.199c-.066-.066-.2-.066-.265-.133a5.959 5.959 0 00-1.196-.133c-1.063 0-1.793.067-2.059.2-.133.066-.266.132-.332.265-.133.133-.133.2-.066.2.332.066.597.199.73.398l.066.133c.067.066.067.2.133.398.067.2.067.399.067.665v1.062c0 .332-.067.532-.067.73 0 .2-.066.333-.133.4-.066.132-.066.199-.132.199 0 0 0 .066-.067.066-.066 0-.133.067-.265.067a.503.503 0 01-.266-.133.8.8 0 01-.332-.332 2.317 2.317 0 01-.399-.598c-.132-.266-.332-.532-.465-.93l-.133-.266c-.066-.133-.199-.398-.332-.73-.132-.332-.265-.598-.398-.93a.917.917 0 00-.2-.266h-.066s-.066-.066-.133-.066c-.066 0-.132-.067-.199-.067H7.84c-.267 0-.4.067-.466.133l-.066.066v.133c0 .067 0 .133.066.266.332.797.73 1.594 1.13 2.391.398.73.796 1.395 1.062 1.86.332.465.598.93.93 1.328.332.399.531.664.598.797l.265.266.2.2c.132.132.332.331.597.53.266.2.598.399.93.598.332.2.73.332 1.13.465.464.133.863.2 1.261.133h.996c.2 0 .333-.066.465-.2l.067-.066c0-.066.066-.066.066-.133v-.265c0-.266 0-.465.067-.664.066-.2.066-.332.133-.465a.894.894 0 01.199-.266l.133-.133h.066c.133-.066.332 0 .465.133.2.133.399.332.531.531.133.2.332.399.598.665.266.265.465.465.598.53l.2.134c.132.066.265.133.464.199.2.066.332.066.465.066l2.258-.066c.2 0 .399-.066.532-.133.132-.066.199-.133.199-.265v-.266c-.133-.133-.133-.2-.133-.266z" fill="#fff"/></svg>