<svg xmlns="http://www.w3.org/2000/svg" width="21" height="12"><path fill="#bcbbbb" d="M12.876 6.144c.094-1.375-1.092-2.508-2.526-2.421-1.186.074-2.148.992-2.221 2.129-.095 1.375 1.09 2.508 2.526 2.421 1.181-.07 2.143-.988 2.22-2.129zm-2.083 4.071c-2.666.16-4.868-1.941-4.7-4.496.137-2.106 1.922-3.813 4.124-3.944 2.666-.16 4.868 1.941 4.7 4.496-.141 2.101-1.926 3.808-4.124 3.944zM10.5 0C6.488 0 2.85 2.104.164 5.522a.77.77 0 000 .952C2.85 9.896 6.488 12 10.5 12c4.012 0 7.65-2.104 10.336-5.522a.77.77 0 000-.952C18.15 2.104 14.512 0 10.5 0z"/></svg>