<svg width="32" height="32" viewBox="0 0 32 32" fill="none" xmlns="http://www.w3.org/2000/svg">
<circle cx="16" cy="16" r="16" fill="#4E6297"/>
<path d="M23.2 11.055C23.2 9.85704 22.143 8.80005 20.9451 8.80005H11.8549C10.657 8.80005 9.59998 9.85704 9.59998 11.055V20.1451C9.59998 21.343 10.657 22.4 11.8549 22.4H16.4352V17.256H14.744V15.0011H16.4352V14.085C16.4352 12.5348 17.5627 11.1959 18.972 11.1959H20.8041V13.4508H18.972C18.7606 13.4508 18.5492 13.6622 18.5492 14.085V15.0011H20.8041V17.256H18.5492V22.4H20.9451C22.143 22.4 23.2 21.343 23.2 20.1451V11.055Z" fill="white"/>
</svg>
