<svg width="32" height="32" viewBox="0 0 32 32" fill="none" xmlns="http://www.w3.org/2000/svg">
<circle cx="16" cy="16" r="16" fill="#7294C7"/>
<path d="M23.8449 20.0922C23.8449 20.0257 23.7785 20.0257 23.7785 19.9593C23.5128 19.428 22.9151 18.7638 22.1181 18.0332C21.7195 17.7011 21.5203 17.4354 21.3874 17.3026C21.1882 17.0369 21.1882 16.8377 21.2546 16.572C21.321 16.3727 21.5867 16.0406 22.0516 15.4429C22.3173 15.1108 22.4501 14.9115 22.6494 14.7123C23.6457 13.3839 24.1106 12.5205 23.9778 12.122L23.9114 12.0555C23.8449 11.9891 23.7785 11.9227 23.6457 11.9227C23.5128 11.8563 23.3136 11.8563 23.1143 11.9227H20.5904C20.524 11.9227 20.524 11.9227 20.3912 11.9227C20.3248 11.9227 20.2583 11.9227 20.2583 11.9227H20.1919H20.1255L20.0591 11.9891C19.9927 12.0555 19.9927 12.0555 19.9927 12.122C19.727 12.8526 19.3949 13.4503 19.0628 14.1145C18.8636 14.4466 18.6643 14.7787 18.465 15.0444C18.2658 15.31 18.1329 15.5093 18.0001 15.6421C17.8673 15.775 17.7344 15.8414 17.668 15.9742C17.6016 16.0406 17.4688 16.1071 17.4688 16.0406C17.4024 16.0406 17.3359 16.0406 17.3359 15.9742C17.2695 15.9078 17.2031 15.8414 17.1367 15.775C17.0703 15.7085 17.0703 15.5757 17.0038 15.4429C17.0038 15.31 17.0038 15.1772 17.0038 15.1108C17.0038 15.0444 17.0038 14.8451 17.0038 14.7123C17.0038 14.513 17.0038 14.3802 17.0038 14.3138C17.0038 14.1145 17.0038 13.8488 17.0038 13.5832C17.0038 13.3175 17.0038 13.1182 17.0038 12.9854C17.0038 12.8526 17.0038 12.6533 17.0038 12.5205C17.0038 12.3212 17.0038 12.1884 17.0038 12.122C17.0038 12.0555 16.9374 11.9227 16.9374 11.8563C16.871 11.7899 16.8046 11.7234 16.7382 11.657C16.6717 11.5906 16.5389 11.5906 16.4725 11.5242C16.1404 11.4578 15.7419 11.3914 15.277 11.3914C14.2143 11.3914 13.4837 11.4578 13.218 11.5906C13.0852 11.657 12.9523 11.7234 12.8859 11.8563C12.7531 11.9891 12.7531 12.0555 12.8195 12.0555C13.1516 12.122 13.4173 12.2548 13.5501 12.454L13.6165 12.5869C13.6829 12.6533 13.6829 12.7861 13.7493 12.9854C13.8158 13.1846 13.8158 13.3839 13.8158 13.6496C13.8158 14.0481 13.8158 14.4466 13.8158 14.7123C13.8158 15.0444 13.7493 15.2436 13.7493 15.4429C13.7493 15.6421 13.6829 15.775 13.6165 15.8414C13.5501 15.9742 13.5501 16.0406 13.4837 16.0406C13.4837 16.0406 13.4837 16.1071 13.4172 16.1071C13.3508 16.1071 13.2844 16.1735 13.1516 16.1735C13.0852 16.1735 12.9523 16.1071 12.8859 16.0406C12.7531 15.9742 12.6202 15.8414 12.5538 15.7085C12.421 15.5757 12.2881 15.3765 12.1553 15.1108C12.0225 14.8451 11.8232 14.5794 11.6904 14.1809L11.5575 13.9153C11.4911 13.7824 11.3583 13.5167 11.2255 13.1847C11.0926 12.8526 10.9598 12.5869 10.8269 12.2548C10.7605 12.122 10.6941 12.0555 10.6277 11.9891H10.5613C10.5613 11.9891 10.4948 11.9227 10.4284 11.9227C10.362 11.9227 10.2956 11.8563 10.2292 11.8563H7.83811C7.57244 11.8563 7.4396 11.9227 7.37319 11.9891L7.30676 12.0555C7.30676 12.0555 7.30676 12.122 7.30676 12.1884C7.30676 12.2548 7.30677 12.3212 7.37319 12.454C7.70528 13.2511 8.10378 14.0481 8.50229 14.8451C8.9008 15.5757 9.29932 16.2399 9.56499 16.7048C9.89708 17.1698 10.1628 17.6347 10.4948 18.0332C10.8269 18.4317 11.0262 18.6974 11.0926 18.8302C11.2254 18.963 11.2919 19.0295 11.3583 19.0959L11.5575 19.2951C11.6904 19.428 11.8896 19.6272 12.1553 19.8265C12.421 20.0257 12.7531 20.225 13.0852 20.4242C13.4172 20.6235 13.8158 20.7563 14.2143 20.8892C14.6792 21.022 15.0777 21.0884 15.4762 21.022H16.4725C16.6718 21.022 16.8046 20.9556 16.9374 20.8228L17.0038 20.7563C17.0038 20.6899 17.0703 20.6899 17.0703 20.6235C17.0703 20.5571 17.0703 20.4907 17.0703 20.3578C17.0703 20.0922 17.0703 19.8929 17.1367 19.6937C17.2031 19.4944 17.2031 19.3616 17.2695 19.2287C17.3359 19.0959 17.4024 19.0295 17.4688 18.963C17.5352 18.8966 17.6016 18.8302 17.6016 18.8302H17.668C17.8009 18.7638 18.0001 18.8302 18.133 18.963C18.3322 19.0959 18.5315 19.2951 18.6643 19.4944C18.7971 19.6936 18.9964 19.8929 19.2621 20.1586C19.5277 20.4243 19.727 20.6235 19.8598 20.6899L20.0591 20.8228C20.1919 20.8892 20.3248 20.9556 20.524 21.022C20.7233 21.0884 20.8561 21.0884 20.9889 21.0884L23.2472 21.022C23.4464 21.022 23.6457 20.9556 23.7785 20.8892C23.9114 20.8228 23.9778 20.7563 23.9778 20.6235C23.9778 20.5571 23.9778 20.4243 23.9778 20.3578C23.8449 20.225 23.8449 20.1586 23.8449 20.0922Z" fill="white"/>
</svg>
