<svg width="12" height="12" fill="none" xmlns="http://www.w3.org/2000/svg"><path d="M10.117 0H1.883A.584.584 0 001.3.583v10.834c0 .321.261.583.583.583h8.234a.584.584 0 00.583-.583V.583A.584.584 0 0010.117 0zm.183 11.417a.183.183 0 01-.183.183H1.883a.183.183 0 01-.183-.183V.583C1.7.482 1.782.4 1.883.4h8.234c.101 0 .183.082.183.183v10.834z" fill="#fff"/><path d="M2.3 11h2.2V8.8H2.3V11zm.4-1.8h1.4v1.4H2.7V9.2zM4.9 11h2.2V8.8H4.9V11zm.4-1.8h1.4v1.4H5.3V9.2zM7.5 11h2.2V6.2H7.5V11zm.4-4.4h1.4v4H7.9v-4zM2.3 8.4h2.2V6.2H2.3v2.2zm.4-1.8h1.4V8H2.7V6.6zm2.2 1.8h2.2V6.2H4.9v2.2zm.4-1.8h1.4V8H5.3V6.6zm-3-.8h2.2V3.6H2.3v2.2zM2.7 4h1.4v1.4H2.7V4zm2.2 1.8h2.2V3.6H4.9v2.2zM5.3 4h1.4v1.4H5.3V4zm2.2 1.8h2.2V3.6H7.5v2.2zM7.9 4h1.4v1.4H7.9V4zM2.3 3h7.4V1H2.3v2zm.4-1.6h6.6v1.2H2.7V1.4z" fill="#fff"/></svg>