<svg width="64" height="64" fill="none" xmlns="http://www.w3.org/2000/svg"><path d="M62.433 7.967c-1.044-1.044-2.3-1.567-3.766-1.567H5.333c-1.466 0-2.722.522-3.767 1.567C.522 9.01 0 10.267 0 11.733v40.533c0 1.467.522 2.723 1.566 3.767 1.045 1.044 2.3 1.567 3.767 1.567h53.334c1.466 0 2.721-.523 3.766-1.567 1.044-1.044 1.567-2.3 1.567-3.767V11.733c0-1.466-.523-2.722-1.567-3.766zm-2.7 44.3c0 .29-.106.538-.317.75-.21.21-.46.316-.75.316H5.334c-.288 0-.539-.106-.75-.317a1.026 1.026 0 01-.316-.75V32h55.466v20.267zm0-33.068H4.267v-7.466c0-.289.105-.539.316-.75a1.03 1.03 0 01.75-.316h53.334c.288 0 .538.105.75.316.21.211.316.461.316.75v7.466z" fill="#fff"/><path d="M17.067 44.8H8.534v4.267h8.533V44.8zm17.066 0h-12.8v4.267h12.8V44.8z" fill="#fff"/></svg>