<svg width="32" height="32" fill="none" xmlns="http://www.w3.org/2000/svg"><g clip-path="url(#clip0)" fill="#fff"><path d="M5.8 26.645l1.32 1.32 1.423-1.422V32h1.868v-5.457l1.422 1.422 1.32-1.32-3.676-3.678-3.678 3.678zm15.112 2.4a3.642 3.642 0 01-3.638-3.638v-2.473a5.27 5.27 0 107.277-.034v2.507a3.642 3.642 0 01-3.64 3.638z"/><path d="M9.957 17.638a1.826 1.826 0 001.826-1.825V17a1.826 1.826 0 003.652 0v1a1.826 1.826 0 003.651 0v7.406a1.826 1.826 0 003.652 0v-9.535a3.164 3.164 0 002.906-3.15V8.756l-4.128-5.15L21.539 0H11.012l-.017 3.624-2.863 4.46v7.729c0 1.008.817 1.825 1.825 1.825z"/></g><defs><clipPath id="clip0"><path fill="#fff" transform="rotate(-180 16 16)" d="M0 0h32v32H0z"/></clipPath></defs></svg>