<svg width="64" height="64" fill="none" xmlns="http://www.w3.org/2000/svg"><g clip-path="url(#clip0)" fill="#1A32DC"><path d="M52.433 31.417a1.165 1.165 0 100-2.33 1.165 1.165 0 000 2.33zm-41.927 0a1.165 1.165 0 100-2.33 1.165 1.165 0 000 2.33zM14 34.911a1.165 1.165 0 100-2.33 1.165 1.165 0 000 2.33zm6.988 0a1.165 1.165 0 100-2.33 1.165 1.165 0 000 2.33zm-3.494 3.494a1.165 1.165 0 100-2.33 1.165 1.165 0 000 2.33zm6.988 0a1.165 1.165 0 100-2.33 1.165 1.165 0 000 2.33zm3.494 3.494a1.165 1.165 0 100-2.33 1.165 1.165 0 000 2.33zm6.987 0a1.165 1.165 0 100-2.33 1.165 1.165 0 000 2.33zm3.494-3.494a1.165 1.165 0 100-2.33 1.165 1.165 0 000 2.33zm-6.987 6.988a1.165 1.165 0 100-2.33 1.165 1.165 0 000 2.33zm10.481-10.482a1.165 1.165 0 100-2.33 1.165 1.165 0 000 2.33zm6.988 0a1.165 1.165 0 100-2.33 1.165 1.165 0 000 2.33zm-3.494 3.494a1.165 1.165 0 100-2.33 1.165 1.165 0 000 2.33z"/><path d="M53.06 38.195L64 31.945l-11.246-6.386L64 19.134 32 .962 0 19.134l11.246 6.425L0 31.945l11.246 6.425L0 44.756l32 18.282 32.001-18.282-11.246-6.386.083-.048c.082-.03.15-.079.221-.127zM32 3.64l27.295 15.5-8.894 5.083L32 34.734 4.707 19.139l27.295-15.5zM12.962 27.263c.189.388.579.66 1.039.66.315 0 .596-.127.806-.33l2.634 1.505c-.617.03-1.11.53-1.11 1.155a1.165 1.165 0 002.329 0c0-.202-.064-.381-.154-.547l12.03 6.874c-.135.19-.23.41-.23.66a1.165 1.165 0 002.33 0c0-.06-.025-.11-.035-.166l11.707-6.689a1.15 1.15 0 001.138 1.03c.643 0 1.165-.52 1.165-1.164 0-.378-.192-.7-.473-.912l2.564-1.465c.08.018.154.048.238.048.517 0 .94-.342 1.092-.808l.373-.213 8.89 5.048-2.309 1.32a1.162 1.162 0 00-2.222.476c0 .252.097.472.232.662l-4.594 2.625-7.44 4.25c.09-.165.156-.346.156-.549a1.165 1.165 0 00-2.33 0 1.16 1.16 0 001.115 1.154l-2.635 1.506a1.159 1.159 0 00-.809-.33c-.642 0-1.164.521-1.164 1.164 0 .093.032.176.053.263l-5.345 3.054-6.426-3.671a1.152 1.152 0 00-1.093-.81c-.085 0-.16.03-.24.048l-2.563-1.464c.28-.213.474-.533.474-.913 0-.643-.522-1.165-1.165-1.165-.596 0-1.07.456-1.138 1.033l-11.71-6.688c.01-.057.035-.108.035-.168 0-.643-.522-1.164-1.165-1.164-.278 0-.523.11-.723.273l-1.583-.903 8.256-4.69zM59.294 44.76L31.999 60.356 4.706 44.76l8.89-5.048L32 50.227l18.403-10.514 8.89 5.048z"/></g><defs><clipPath id="clip0"><path fill="#fff" d="M0 0h64v64H0z"/></clipPath></defs></svg>