<svg width="12" height="12" fill="none" xmlns="http://www.w3.org/2000/svg"><g clip-path="url(#clip0)" fill="#fff"><path d="M10.535 1.434H1.467C.658 1.434 0 2.092 0 2.9v6.2c0 .81.658 1.467 1.467 1.467h9.066c.809 0 1.467-.658 1.467-1.467V2.904a1.467 1.467 0 00-1.465-1.47zm.797 7.665c0 .44-.357.797-.797.797H1.467a.798.798 0 01-.797-.797V2.904c0-.44.358-.797.797-.797h9.066c.44 0 .797.357.797.797v6.195h.002z"/><path d="M7.568 5.923l2.935-2.632a.337.337 0 00.025-.474.337.337 0 00-.475-.025L6.006 6.425l-.79-.706-.004-.007a.497.497 0 00-.055-.047L1.944 2.79a.335.335 0 00-.474.027.335.335 0 00.027.474l2.97 2.654L1.51 8.714a.337.337 0 00.459.492l3.002-2.809.814.728a.335.335 0 00.447-.003l.837-.75 2.984 2.836a.335.335 0 10.462-.487L7.568 5.923z"/></g><defs><clipPath id="clip0"><path fill="#fff" d="M0 0h12v12H0z"/></clipPath></defs></svg>