<svg width="64" height="64" fill="none" xmlns="http://www.w3.org/2000/svg"><path d="M58.477 53.981l-4.581-7.632a22.686 22.686 0 01-3.23-11.664V28c0-10.29-8.375-18.667-18.666-18.667-10.29 0-18.667 8.376-18.667 18.667v6.685c0 4.11-1.117 8.142-3.23 11.664l-4.58 7.632A1.333 1.333 0 006.665 56h50.667a1.333 1.333 0 001.144-2.019zm-49.456-.648l3.368-5.613A25.328 25.328 0 0016 34.685V28c0-8.824 7.177-16 16-16 8.825 0 16 7.176 16 16v6.685c0 4.592 1.249 9.099 3.609 13.035l3.37 5.613H9.021z" fill="#fff"/><path d="M32 0a5.339 5.339 0 00-5.333 5.333v5.334a1.334 1.334 0 002.666 0V5.333a2.668 2.668 0 015.334 0v5.334a1.334 1.334 0 002.666 0V5.333A5.339 5.339 0 0032 0zm5.77 53.99a1.334 1.334 0 10-2.304 1.35 3.98 3.98 0 01.536 1.992c0 2.205-1.794 4-4 4-2.205 0-4-1.795-4-4 0-.696.19-1.403.536-1.992a1.338 1.338 0 00-.477-1.827 1.341 1.341 0 00-1.827.478 6.622 6.622 0 00-.901 3.34A6.673 6.673 0 0032 64c3.677 0 6.666-2.99 6.672-6.667a6.622 6.622 0 00-.902-3.341z" fill="#fff"/></svg>