<svg width="12" height="12" fill="none" xmlns="http://www.w3.org/2000/svg"><g clip-path="url(#clip0)"><path d="M9.483.269L7.63 2.122c-.368.37-.356.98.026 1.363l.933.933-.102.185c-.327.59-.775 1.396-1.625 2.245-.851.852-1.66 1.3-2.25 1.628l-.18.1-.625-.626-.308-.308c-.383-.383-.994-.394-1.363-.025L.282 9.47c-.368.368-.357.98.026 1.362l.525.522.015-.014a3.09 3.09 0 001.529.622c2.028.245 3.882-.682 6.398-3.198 3.478-3.478 3.215-6.28 3.202-6.401a3.128 3.128 0 00-.622-1.529l.01-.011-.518-.53c-.383-.381-.994-.392-1.364-.024z" fill="#fff"/></g><defs><clipPath id="clip0"><path fill="#fff" transform="rotate(-90 6 6)" d="M0 0h12v12H0z"/></clipPath></defs></svg>