<svg width="64" height="64" fill="none" xmlns="http://www.w3.org/2000/svg"><path d="M49.334 0H4.001a4 4 0 00-4 4v32a4 4 0 004 4h17.333v-2.667H4.001A1.333 1.333 0 012.668 36V4c0-.736.597-1.333 1.333-1.333h45.333c.737 0 1.334.597 1.334 1.333v24h2.666V4a4 4 0 00-4-4z" fill="#1A32DC"/><path d="M18.667 38.667H16v8h2.667v-8zM9.334 32A1.333 1.333 0 018 30.667V28H5.333v2.667a4 4 0 004 4H12V32H9.334zM8 22.667H5.333v2.666H8v-2.666zm40.73 5.576a14.487 14.487 0 00-10.246-4.244c-8 0-14.486 6.486-14.486 14.487 0 8 6.487 14.486 14.488 14.486 3.841 0 7.525-1.526 10.242-4.242 5.657-5.657 5.658-14.83.002-20.487zM38.477 50.307c-6.529-.003-11.819-5.296-11.817-11.824.003-6.528 5.296-11.819 11.825-11.816a11.734 11.734 0 018.358 3.466 11.82 11.82 0 013.457 8.358c-.002 6.528-5.296 11.818-11.824 11.816zM63.61 58l-8.37-8.367a1.333 1.333 0 00-1.885 0l-3.72 3.72a1.335 1.335 0 000 1.886l8.37 8.37a1.33 1.33 0 001.884-.004l3.72-3.72a1.332 1.332 0 000-1.885zm-4.663 2.781l-6.484-6.485 1.834-1.835 6.484 6.486-1.834 1.834z" fill="#1A32DC"/><path d="M48.73 46.843l-1.886 1.885 4.65 4.65 1.885-1.885-4.65-4.65zm-10.063-17.51V32a6.675 6.675 0 016.666 6.667H48a9.344 9.344 0 00-9.333-9.334zM24 45.333H13.334V48H24v-2.667zm-4-40a4 4 0 100 8 4 4 0 000-8zm0 5.334A1.333 1.333 0 1120 8a1.333 1.333 0 010 2.667zm9.334 4a4 4 0 100 8 4 4 0 000-8zm0 5.333a1.333 1.333 0 110-2.667 1.333 1.333 0 010 2.667z" fill="#1A32DC"/><path d="M17.724 9.724l-6.667 6.667 1.886 1.885 6.666-6.666-1.885-1.886zm4.546.004l-1.885 1.885 6.666 6.667 1.886-1.886-6.667-6.666zm16.397-4.395a4 4 0 100 8 4 4 0 000-8zm0 5.334a1.333 1.333 0 110-2.667 1.333 1.333 0 010 2.667z" fill="#1A32DC"/><path d="M36.39 9.729l-6.667 6.667 1.886 1.885 6.666-6.666-1.885-1.886z" fill="#1A32DC"/></svg>