<svg width="12" height="12" fill="none" xmlns="http://www.w3.org/2000/svg"><g clip-path="url(#clip0)"><path d="M11.815 1.192a.78.78 0 00-.619-.278 1.21 1.21 0 00-.431.086L.607 4.877c-.539.206-.611.515-.607.68.005.166.095.47.645.645l.01.003 2.107.603 1.14 3.259c.154.444.503.72.91.72.255 0 .507-.107.728-.31l1.303-1.2 1.89 1.522.019.015.005.004c.21.163.44.249.663.249.438 0 .787-.324.888-.826l1.665-8.218c.066-.33.01-.625-.158-.831zM3.466 6.694l4.065-2.077-2.53 2.69a.35.35 0 00-.086.156L4.427 9.44l-.96-2.746zm1.597 3.265a.663.663 0 01-.05.042l.452-1.834.824.664-1.226 1.128zm6.22-8.075L9.62 10.102c-.016.079-.067.261-.199.261a.41.41 0 01-.23-.1L7.048 8.54 5.772 7.511l3.66-3.89a.352.352 0 00-.416-.553l-6.02 3.075-2.136-.61 10.155-3.877a.516.516 0 01.18-.04c.022 0 .06.003.074.02.02.023.043.1.013.247z" fill="#fff"/></g><defs><clipPath id="clip0"><path fill="#fff" d="M0 0h12v12H0z"/></clipPath></defs></svg>