<svg width="64" height="64" fill="none" xmlns="http://www.w3.org/2000/svg"><path d="M58.682 48.415l-10.19-5.094a2.806 2.806 0 01-1.559-2.523V37.19c.245-.298.502-.638.767-1.014a24.409 24.409 0 003.151-6.186 4.232 4.232 0 002.482-3.858v-4.266a4.254 4.254 0 00-1.066-2.8v-5.674c.06-.587.294-4.079-2.232-6.96-2.19-2.499-5.746-3.766-10.568-3.766-4.823 0-8.378 1.267-10.569 3.765-1.53 1.746-2.046 3.713-2.201 5.125-1.829-.945-3.983-1.424-6.43-1.424-11.082 0-11.727 9.446-11.734 9.6v4.885c-.69.753-1.066 1.622-1.066 2.485v3.684c0 1.151.515 2.224 1.398 2.95.88 3.317 3.044 5.824 3.887 6.704v2.925c0 .84-.457 1.61-1.25 2.043L4.407 49.86A8.452 8.452 0 000 57.283v4.05h64v-4.312a9.571 9.571 0 00-5.318-8.606zm-43.749 8.398V59.2h-12.8v-1.917c0-2.314 1.263-4.441 3.35-5.582l7.096-4.45a4.42 4.42 0 002.305-3.884v-3.83l-.339-.318c-.028-.025-2.862-2.703-3.7-6.352l-.096-.422-.365-.235a1.695 1.695 0 01-.784-1.423v-3.684c0-.384.261-.84.716-1.252l.35-.317-.002-5.739c.02-.306.575-7.528 9.603-7.528 2.552 0 4.701.59 6.4 1.753v5.047a4.254 4.254 0 00-1.067 2.8v4.266c0 .325.037.644.108.953.029.124.086.237.126.356.058.18.105.364.187.534l.003.005a4.275 4.275 0 001.173 1.469l.017.057c.064.244.131.488.204.726l.086.278c.015.05.033.1.05.148a15.328 15.328 0 00.321.933c.032.087.069.166.103.252.087.223.174.439.266.652.023.051.042.107.064.157l.06.134c.028.062.056.118.084.178.105.229.207.45.314.663l.05.105c.067.134.134.26.202.388a23.452 23.452 0 00.947 1.641c.03.048.06.098.09.144.259.4.483.724.668.977l.134.182.075.103v3.53c0 1.032-.563 1.98-1.468 2.474l-2.823 1.54-.492-.044-.2.421-6.001 3.274a9.623 9.623 0 00-5.015 8.45zM61.867 59.2h-44.8v-2.387a7.484 7.484 0 013.903-6.575l9.515-5.19a4.953 4.953 0 002.582-4.35v-4.285l-.207-.248-.04-.048a5.451 5.451 0 01-.177-.224 10.359 10.359 0 01-.219-.293c0-.002-.002-.003-.003-.005a19.417 19.417 0 01-.58-.854l-.015-.023a20.989 20.989 0 01-.328-.53l-.026-.043a21.801 21.801 0 01-.752-1.368l-.001-.003a21.73 21.73 0 01-.403-.855l-.056-.124a20.981 20.981 0 01-.177-.417l-.064-.16c-.055-.14-.112-.28-.171-.441a17.64 17.64 0 01-.31-.906l-.058-.19-.02-.065a16.17 16.17 0 01-.278-1.036l-.097-.422-.364-.235a2.127 2.127 0 01-.988-1.789v-4.266c0-.599.254-1.157.715-1.574l.352-.316v-7.021l-.029-.023c-.036-.77.01-3.13 1.731-5.094 1.768-2.018 4.784-3.04 8.965-3.04 4.165 0 7.175 1.014 8.945 3.017 2.077 2.347 1.733 5.351 1.73 5.377l-.009 6.783.352.317c.461.416.715.974.715 1.573v4.266a2.12 2.12 0 01-1.517 2.026l-.531.163-.17.528a22.33 22.33 0 01-3.024 6.094c-.316.45-.625.847-.892 1.151l-.266.303v4.4a4.926 4.926 0 002.737 4.43l10.19 5.094a7.448 7.448 0 014.14 6.699v2.18z" fill="#fff"/></svg>