<svg width="12" height="12" fill="none" xmlns="http://www.w3.org/2000/svg"><g clip-path="url(#clip0)"><path d="M11.936 8.76a.81.81 0 00-.04-.078c-.209-.375-.606-.835-1.194-1.381l-.012-.013-.006-.006-.006-.006h-.007a7.177 7.177 0 01-.506-.512c-.13-.167-.158-.336-.087-.507.05-.129.237-.401.562-.818.17-.22.306-.398.406-.53.72-.959 1.033-1.571.937-1.838l-.037-.062c-.025-.038-.09-.072-.194-.103a.983.983 0 00-.4-.016l-1.799.013a.233.233 0 00-.125.003l-.081.019-.032.015-.024.019a.278.278 0 00-.07.066.429.429 0 00-.062.109c-.195.504-.418.972-.668 1.406a13.31 13.31 0 01-.425.671c-.13.19-.237.33-.325.419-.087.09-.166.161-.237.215-.071.055-.125.078-.163.07a4.601 4.601 0 01-.106-.026.416.416 0 01-.14-.153.685.685 0 01-.072-.244 2.686 2.686 0 01-.02-.553c.005-.129.007-.216.007-.262 0-.158.003-.33.01-.515.006-.186.01-.333.015-.44.004-.11.006-.224.006-.345 0-.12-.007-.215-.022-.284a.973.973 0 00-.065-.2.337.337 0 00-.128-.15.722.722 0 00-.21-.084 4.157 4.157 0 00-.843-.081c-.775-.009-1.272.041-1.493.15a.842.842 0 00-.238.187c-.075.092-.085.142-.03.15.25.037.426.127.53.269l.038.075a1.2 1.2 0 01.087.287c.03.137.048.29.056.456.021.304.021.564 0 .781-.02.217-.04.385-.059.506a1.013 1.013 0 01-.16.431.108.108 0 01-.03.031.468.468 0 01-.17.032c-.058 0-.128-.03-.212-.088a1.499 1.499 0 01-.259-.24 3.215 3.215 0 01-.303-.428 7.472 7.472 0 01-.35-.65l-.1-.181a15.565 15.565 0 01-.256-.51 9.816 9.816 0 01-.287-.646.412.412 0 00-.15-.2l-.031-.019a.663.663 0 00-.244-.094L.4 2.89c-.175 0-.294.04-.356.119l-.025.037a.202.202 0 00-.019.1.48.48 0 00.038.169c.25.587.521 1.154.815 1.7.293.545.549.984.765 1.317.217.334.437.648.662.944.225.296.374.485.447.568.073.084.13.146.172.188l.156.15c.1.1.247.22.44.359.194.14.409.277.644.412.236.136.51.246.822.331.312.086.616.12.912.104h.719a.498.498 0 00.33-.138l.026-.031a.414.414 0 00.046-.116.635.635 0 00.022-.171c-.004-.18.01-.34.04-.485.032-.143.067-.251.107-.324a.799.799 0 01.24-.275.407.407 0 01.05-.022c.1-.033.218-.001.354.097.135.098.262.219.38.362.12.144.262.305.429.484.167.18.312.313.437.4l.125.075c.084.05.192.096.325.138a.7.7 0 00.35.03l1.6-.024a.725.725 0 00.368-.078c.087-.052.14-.11.156-.172a.483.483 0 00.003-.213.786.786 0 00-.044-.165z" fill="#fff"/></g><defs><clipPath id="clip0"><path fill="#fff" d="M0 0h12v12H0z"/></clipPath></defs></svg>